<svg xmlns="http://www.w3.org/2000/svg" width="72.062" height="64" viewBox="0 0 36.031 32"><defs><style>.cls-1 { fill-rule: evenodd; }</style></defs><path d="M965.253 130a15.89 15.89 0 0 0-15.7 14.629l-2.475-3.829a1.157 1.157 0 0 0-1.576-.343 1.209 1.209 0 0 0-.338 1.6L950.4 150l7.2-6.629a1.116 1.116 0 0 0 .056-1.6 1.076 1.076 0 0 0-1.575-.057l-4.333 4a13.51 13.51 0 1 1 13.5 14 13.485 13.485 0 0 1-9.566-4 1.077 1.077 0 0 0-1.576 0 1.117 1.117 0 0 0 0 1.6A15.5 15.5 0 0 0 965.253 162a16 16 0 0 0 0-32z" transform="translate(-944.969 -130)"/></svg>