<svg xmlns="http://www.w3.org/2000/svg" width="90" height="64" viewBox="0 0 45 32"><defs><style>.cls-1 { fill-rule: evenodd; }</style></defs><path d="M491.134 130c.136.069.272.141.409.209a1.967 1.967 0 0 1 .632 3.249 16.879 16.879 0 0 0-3.477 5.114q-4.536 11.012 3.454 19.944a1.9 1.9 0 0 1 .447 2.236 2.035 2.035 0 0 1-2.089 1.2 2.276 2.276 0 0 1-1.191-.575 21.541 21.541 0 0 1-6.115-12.406L483 147.49v-3.019a3 3 0 0 0 .09-.4 21.545 21.545 0 0 1 5.7-12.9 11.116 11.116 0 0 1 1.5-1.173h.845zM528 147.49c-.174 1.091-.3 2.194-.533 3.272a21.567 21.567 0 0 1-5.741 10.591 1.9 1.9 0 0 1-2.775.086 1.855 1.855 0 0 1-.171-2.845 18.006 18.006 0 0 0 .468-24.677 4.166 4.166 0 0 0-.323-.343 2.013 2.013 0 0 1 .772-3.469 1.031 1.031 0 0 0 .169-.1h.845a5.557 5.557 0 0 1 1.031.679 21.524 21.524 0 0 1 5.719 10.521c.238 1.078.362 2.18.539 3.271v3.019zm-35.785-1.452a11.716 11.716 0 0 1 3.244-8.107 1.914 1.914 0 0 1 2.805-.225 1.871 1.871 0 0 1 .084 2.849 7.842 7.842 0 0 0 0 10.895 1.868 1.868 0 0 1-.054 2.815 1.923 1.923 0 0 1-2.847-.192 11.668 11.668 0 0 1-3.232-8.035zm26.57-.128a11.574 11.574 0 0 1-3.223 8.146 1.939 1.939 0 0 1-2.848.226 1.876 1.876 0 0 1-.049-2.852 7.86 7.86 0 0 0 .635-10.095 10.278 10.278 0 0 0-.673-.8 1.869 1.869 0 0 1 .09-2.814 1.912 1.912 0 0 1 2.807.192 11.832 11.832 0 0 1 3.261 7.997zm-13.264 4.08a4.06 4.06 0 1 1 4.1-4.092 4.087 4.087 0 0 1-4.1 4.092z" transform="translate(-483 -130)"/></svg>