<svg xmlns="http://www.w3.org/2000/svg" xmlns:xlink="http://www.w3.org/1999/xlink"><defs><style>.cls-1 { fill-rule: evenodd; }</style><style>.cls-1 { fill: #b62c2f; fill-rule: evenodd; }</style><style>.cls-1 { fill-rule: evenodd; }</style><style>.cls-1 { fill-rule: evenodd; opacity: 0.5; }</style><style>.cls-1 { fill: #252424; fill-rule: evenodd; }</style><style>.cls-1 { fill: #252424; fill-rule: evenodd; }</style><style>.cls-1 { fill: none; stroke: #000; stroke-width: 2px; fill-rule: evenodd; }</style><style>.cls-1 { fill: #fff; fill-rule: evenodd; }</style><style>.cls-1 { fill-rule: evenodd; }</style><style>.cls-1 { fill-rule: evenodd; }</style><style>.cls-1 { fill-rule: evenodd; }</style><style>.cls-1 { fill-rule: evenodd; }</style><style>.cls-1 { fill: #252424; fill-rule: evenodd; }</style><style>.cls-1 { fill: #fff; fill-rule: evenodd; }</style><style>.cls-1 { fill: #fff; fill-rule: evenodd; }</style><style>.cls-1 { fill: #252424; fill-rule: evenodd; }</style></defs><symbol viewBox="0 0 36.031 32" id="icon-carica"><title>carica</title><path d="M965.253 130a15.89 15.89 0 0 0-15.7 14.629l-2.475-3.829a1.157 1.157 0 0 0-1.576-.343 1.209 1.209 0 0 0-.338 1.6L950.4 150l7.2-6.629a1.116 1.116 0 0 0 .056-1.6 1.076 1.076 0 0 0-1.575-.057l-4.333 4a13.51 13.51 0 1 1 13.5 14 13.485 13.485 0 0 1-9.566-4 1.077 1.077 0 0 0-1.576 0 1.117 1.117 0 0 0 0 1.6A15.5 15.5 0 0 0 965.253 162a16 16 0 0 0 0-32z" transform="translate(-944.969 -130)"/></symbol><symbol viewBox="-133 135.9 31.1 31.1" id="icon-close"><title>close</title><path d="M-133 138.3l2.4-2.4 28.7 28.7-2.4 2.4z"/><path d="M-104.3 135.9l2.4 2.4-28.7 28.7-2.4-2.4z"/></symbol><symbol viewBox="0 0 26 26" id="icon-delete"><title>delete</title><path d="M867.125 1121.73a.614.614 0 0 1 .61-.61h3.046v-.6a.608.608 0 0 1 .61-.61h1.218a.608.608 0 0 1 .61.61v.6h3.047a.614.614 0 0 1 .609.61v.61h-9.75v-.61zm9.141 1.83v7.52a.614.614 0 0 1-.61.61h-7.312a.614.614 0 0 1-.609-.61v-8.13h8.531v.61zm-6.094 1.22a.61.61 0 1 0-1.219 0v5.08a.61.61 0 1 0 1.219 0v-5.08zm2.437 0a.609.609 0 1 0-1.218 0v5.08a.609.609 0 1 0 1.218 0v-5.08zm2.438 0a.61.61 0 1 0-1.219 0v5.08a.61.61 0 1 0 1.219 0v-5.08zM872 1139a13 13 0 1 1 13-13 13 13 0 0 1-13 13zm0-23.56a10.56 10.56 0 1 0 10.563 10.56A10.563 10.563 0 0 0 872 1115.44z" transform="translate(-859 -1113)"/></symbol><symbol viewBox="0 0 45 32" id="icon-diretta"><title>diretta</title><path d="M491.134 130c.136.069.272.141.409.209a1.967 1.967 0 0 1 .632 3.249 16.879 16.879 0 0 0-3.477 5.114q-4.536 11.012 3.454 19.944a1.9 1.9 0 0 1 .447 2.236 2.035 2.035 0 0 1-2.089 1.2 2.276 2.276 0 0 1-1.191-.575 21.541 21.541 0 0 1-6.115-12.406L483 147.49v-3.019a3 3 0 0 0 .09-.4 21.545 21.545 0 0 1 5.7-12.9 11.116 11.116 0 0 1 1.5-1.173h.845zM528 147.49c-.174 1.091-.3 2.194-.533 3.272a21.567 21.567 0 0 1-5.741 10.591 1.9 1.9 0 0 1-2.775.086 1.855 1.855 0 0 1-.171-2.845 18.006 18.006 0 0 0 .468-24.677 4.166 4.166 0 0 0-.323-.343 2.013 2.013 0 0 1 .772-3.469 1.031 1.031 0 0 0 .169-.1h.845a5.557 5.557 0 0 1 1.031.679 21.524 21.524 0 0 1 5.719 10.521c.238 1.078.362 2.18.539 3.271v3.019zm-35.785-1.452a11.716 11.716 0 0 1 3.244-8.107 1.914 1.914 0 0 1 2.805-.225 1.871 1.871 0 0 1 .084 2.849 7.842 7.842 0 0 0 0 10.895 1.868 1.868 0 0 1-.054 2.815 1.923 1.923 0 0 1-2.847-.192 11.668 11.668 0 0 1-3.232-8.035zm26.57-.128a11.574 11.574 0 0 1-3.223 8.146 1.939 1.939 0 0 1-2.848.226 1.876 1.876 0 0 1-.049-2.852 7.86 7.86 0 0 0 .635-10.095 10.278 10.278 0 0 0-.673-.8 1.869 1.869 0 0 1 .09-2.814 1.912 1.912 0 0 1 2.807.192 11.832 11.832 0 0 1 3.261 7.997zm-13.264 4.08a4.06 4.06 0 1 1 4.1-4.092 4.087 4.087 0 0 1-4.1 4.092z" transform="translate(-483 -130)"/></symbol><symbol viewBox="0 0 16 4" id="icon-drag"><title>drag</title><path d="M1252 1131v1h-16v-1h16zm0-3v1h-16v-1h16z" transform="translate(-1236 -1128)"/></symbol><symbol viewBox="0 0 15 32.75" id="icon-facebook"><title>facebook</title><path d="M382.971 129.252v5.271s-3.793-.386-4.743 1.1c-.519.815-.211 3.2-.257 4.908H383c-.426 2-.731 3.358-1.043 5.09h-4.017V162h-6.97v-16.315h-2.966v-5.154h2.933c.151-3.767.207-7.5 2.035-9.4 2.056-2.131 4.015-1.879 9.999-1.879z" transform="translate(-368 -129.25)"/></symbol><symbol viewBox="0 0 40 31.781" id="icon-freccia1"><title>freccia1</title><path d="M900.4 304.783a1.939 1.939 0 0 0-2.8 0 1.913 1.913 0 0 0 0 2.783l10.7 10.534H878a1.989 1.989 0 1 0 0 3.977h30.3l-10.7 10.538a1.914 1.914 0 0 0 0 2.783 1.94 1.94 0 0 0 2.8 0l15.6-15.305z" transform="translate(-876 -304.219)"/></symbol><symbol viewBox="0 0 47.531 28.531" id="icon-freccia2"><title>freccia2</title><path d="M875.193 377l22.119 23.552L917.771 377" transform="translate(-872.75 -376)"/></symbol><symbol viewBox="0 0 32 19" id="icon-hamburger"><title>hamburger</title><path d="M584.5 627.5h-29a1.5 1.5 0 0 1 0-3h29a1.5 1.5 0 0 1 0 3zm0-8h-29a1.5 1.5 0 0 1 0-3h29a1.5 1.5 0 0 1 0 3zm-29 13h29a1.5 1.5 0 0 1 0 3h-29a1.5 1.5 0 0 1 0-3z" transform="translate(-554 -616.5)"/></symbol><symbol viewBox="0 0 28.031 32" id="icon-lettura"><title>lettura</title><path d="M890.539 162c-.145 0-.249 0-.31-.007a16 16 0 1 1 .037-31.993 1.163 1.163 0 1 1 0 2.326 13.672 13.672 0 1 0 0 27.341h.091c.187.013 4.834.256 9.619-4.447a1.2 1.2 0 0 1 1.673 0 1.148 1.148 0 0 1 0 1.644c-4.856 4.777-9.749 5.136-11.11 5.136z" transform="translate(-874 -130)"/></symbol><symbol viewBox="0 0 44 33" id="icon-photo"><title>photo</title><path d="M600.938 162h-39.876a1.989 1.989 0 0 1-2.062-1.906v-25.382a1.989 1.989 0 0 1 2.062-1.905h8.81l3.3-3.05a2.12 2.12 0 0 1 1.639-.758h12.374a2.141 2.141 0 0 1 1.476.58l3.5 3.232h8.771a1.989 1.989 0 0 1 2.068 1.901v25.382a1.988 1.988 0 0 1-2.062 1.906zM581 135.346c-6.835 0-12.375 5.115-12.375 11.424s5.54 11.421 12.375 11.421 12.375-5.115 12.375-11.421-5.54-11.424-12.375-11.424zm0 19.039c-4.556 0-8.25-3.41-8.25-7.615s3.694-7.618 8.25-7.618 8.25 3.411 8.25 7.618-3.693 7.615-8.25 7.615z" transform="translate(-559 -129)"/></symbol><symbol viewBox="-273 388.9 48 64" id="icon-pin"><title>pin</title><path d="M-249 452.9s-24-26.7-24-40 10.7-24 24-24 24 10.7 24 24c0 13.2-24 40-24 40zm0-56c-8.8 0-16 7.2-16 16s7.2 16 16 16 16-7.2 16-16-7.2-16-16-16zm0 24c-4.4 0-8-3.6-8-8s3.6-8 8-8 8 3.6 8 8-3.6 8-8 8z"/></symbol><symbol viewBox="0 0 33 33" id="icon-play"><title>play</title><path d="M653.5 162a16.5 16.5 0 1 1 16.5-16.5 16.5 16.5 0 0 1-16.5 16.5zm0-29.907a13.407 13.407 0 1 0 13.406 13.407 13.406 13.406 0 0 0-13.406-13.406zm4.908 14.74l-8.2 5.143-.006-.011a1.548 1.548 0 0 1-.184.1h-.006a1.488 1.488 0 0 1-.193.071h-.013c-.029.008-.058.016-.087.022h-.015a1.377 1.377 0 0 1-.1.018.041.041 0 0 0-.016 0l-.084.008h-.126a1.547 1.547 0 0 1-1.547-1.546v-10.294a1.548 1.548 0 0 1 2.42-1.277l8.146 5.091a1.547 1.547 0 0 1 .011 2.676z" transform="translate(-637 -129)"/></symbol><symbol viewBox="0 0 20 33" id="icon-salva"><title>salva</title><path d="M1045.05 129h-18.1a.95.95 0 0 0-.95.942v31.113a.937.937 0 0 0 .57.849 1.053 1.053 0 0 0 1.05-.189l8.38-8.3 8.38 8.3a.947.947 0 0 0 .67.283.576.576 0 0 0 .38-.094.937.937 0 0 0 .57-.849v-31.114a.95.95 0 0 0-.95-.941zm-.95 29.792l-7.43-7.354a.937.937 0 0 0-1.34 0l-7.43 7.354v-27.908h16.2v27.907z" transform="translate(-1026 -129)"/></symbol><symbol viewBox="0 0 32 32" id="icon-search"><title>search</title><path d="M256.122 156.878a3 3 0 0 1-4.243 4.244l-8.792-8.793a12.033 12.033 0 1 1 4.242-4.243l8.793 8.792zM237 133a9 9 0 1 0 9 9 9 9 0 0 0-9-9z" transform="translate(-225 -130)"/></symbol><symbol viewBox="0 0 22 32" id="icon-share"><title>share</title><path d="M691.5 1034h-19a1.5 1.5 0 0 1-1.5-1.5v-19a1.5 1.5 0 0 1 1.5-1.5h6v3H674v16h16v-16h-5v-3h6.5a1.5 1.5 0 0 1 1.5 1.5v19a1.5 1.5 0 0 1-1.5 1.5zm-5-24a1.508 1.508 0 0 1-1.111-.5l-1.885-2.09v9.09a1.5 1.5 0 0 1-3 0v-9.09l-1.885 2.09a1.5 1.5 0 0 1-2.611-1 1.491 1.491 0 0 1 .389-1l4.5-5a1.484 1.484 0 0 1 2.222 0l4.5 5a1.494 1.494 0 0 1-1.119 2.5z" transform="translate(-671 -1002)"/></symbol><symbol viewBox="0 0 21 12" id="icon-submenu"><title>submenu</title><path d="M282.138 620.523l7.862 7.859 7.962-7.962a1.5 1.5 0 0 1 2.12 2.12l-9 9A1.492 1.492 0 0 1 290 632h-.007a1.494 1.494 0 0 1-1.079-.459l-9-9a1.5 1.5 0 1 1 2.224-2.018z" transform="translate(-279.5 -620)"/></symbol><symbol viewBox="0 0 40 32" id="icon-twitter"><title>twitter</title><path d="M314.207 130a8.5 8.5 0 0 1 6.487 2.538 13.413 13.413 0 0 0 4.2-1.4c.34-.185.681-.368 1.021-.552a8.088 8.088 0 0 1-2.663 3.8 3.92 3.92 0 0 1-.9.631v.019A15.521 15.521 0 0 0 327 133.8v.021a13.136 13.136 0 0 1-2.783 3.148l-1.281 1a22.832 22.832 0 0 1-.38 5.194c-2.05 9.081-7.48 15.246-16.076 17.887a24.947 24.947 0 0 1-11.612.472 30.226 30.226 0 0 1-4.825-1.555 19.416 19.416 0 0 1-2.322-1.18l-.721-.432a13.579 13.579 0 0 0 2.623.1c.807-.128 1.6-.094 2.342-.256a16.934 16.934 0 0 0 4.925-1.751 9.164 9.164 0 0 0 2.222-1.436 7.043 7.043 0 0 1-2.442-.433 8.187 8.187 0 0 1-5.205-5.175c.8.087 3.121.294 3.663-.158a6.037 6.037 0 0 1-2.682-1.061 7.763 7.763 0 0 1-3.864-6.927l.841.394a9.071 9.071 0 0 0 1.721.472 2.518 2.518 0 0 0 1.121.1h-.04c-.413-.476-1.086-.791-1.5-1.3a8.184 8.184 0 0 1-1.842-7.339 9.329 9.329 0 0 1 .881-2.107c.013.008.027.014.04.021a5 5 0 0 0 .741.846 14.966 14.966 0 0 0 2.442 2.3 24.3 24.3 0 0 0 10.03 4.782 15.947 15.947 0 0 0 3.684.473 7.406 7.406 0 0 1 .04-3.8 8.008 8.008 0 0 1 4.644-5.431 10.151 10.151 0 0 1 1.822-.552z" transform="translate(-287 -130)"/></symbol></svg>