<svg xmlns="http://www.w3.org/2000/svg" xmlns:xlink="http://www.w3.org/1999/xlink"><symbol viewBox="0 0 32 32" id="icon-aquarius"><title>aquarius</title><path d="M1.631 13.91c1.703 0 2.789-1.314 3.662-2.376.873-1.057 1.455-1.698 2.181-1.698.382 0 .688.412 1.356 1.574.775 1.35 1.944 3.386 4.486 3.386 2.623 0 3.706-2.061 4.42-3.422.312-.596.703-1.336.947-1.336.422 0 1.055 1.006 1.516 1.737.867 1.373 1.943 3.086 3.988 3.086 1.994 0 3.479-1.663 4.797-3.132.473-.528 1.177-1.312 1.514-1.493a1.632 1.632 0 0 0-.128-3.257c-1.511 0-2.63 1.25-3.813 2.574-.641.716-1.832 2.045-2.373 2.045-.283-.067-.918-1.078-1.225-1.562-.866-1.376-2.053-3.262-4.275-3.262-2.215 0-3.188 1.854-3.833 3.079-.725 1.38-.996 1.678-1.533 1.678-.561 0-.905-.438-1.658-1.747-.781-1.355-1.849-3.213-4.186-3.213-2.316 0-3.693 1.669-4.697 2.889-.342.412-.91 1.104-1.163 1.188a1.63 1.63 0 1 0 .017 3.262zM30.37 17.55c-1.511 0-2.63 1.25-3.813 2.572-.641.717-1.832 2.046-2.373 2.046-.283-.067-.918-1.077-1.225-1.562-.866-1.377-2.053-3.262-4.275-3.262-2.215 0-3.188 1.854-3.833 3.08-.725 1.379-.996 1.676-1.533 1.676-.561 0-.905-.438-1.658-1.746-.779-1.355-1.848-3.215-4.185-3.215-2.315 0-3.692 1.67-4.696 2.89-.342.414-.91 1.104-1.163 1.188A1.633 1.633 0 0 0 0 22.847c0 .899.73 1.631 1.631 1.631 1.703 0 2.789-1.314 3.662-2.375.873-1.058 1.455-1.699 2.181-1.699.382 0 .688.413 1.356 1.574.775 1.351 1.944 3.386 4.486 3.386 2.623 0 3.706-2.06 4.42-3.42.312-.597.703-1.337.947-1.337.422 0 1.055 1.006 1.516 1.736.867 1.375 1.943 3.086 3.988 3.086 1.994 0 3.479-1.662 4.797-3.131.473-.527 1.177-1.312 1.514-1.494a1.629 1.629 0 0 0-.128-3.254z"/></symbol><symbol viewBox="0 0 32 32" id="icon-aries"><title>aries</title><path d="M30.162 6.688c-2.404-3.18-6.688-4.528-10.425-3.279A7.763 7.763 0 0 0 15.91 6.2a7.744 7.744 0 0 0-3.649-2.563c-3.735-1.251-8.019.096-10.423 3.277C-.494 10.003-.184 12.918.484 14.82c.736 2.089 2.399 4.116 3.634 4.426a1.842 1.842 0 0 0 2.227-1.332 1.835 1.835 0 0 0-.97-2.095c-.311-.27-1.404-1.46-1.651-3.104-.187-1.241.156-2.413 1.044-3.588 1.444-1.909 4.104-2.752 6.326-2.011 1.98.665 3.07 2.453 3.07 5.033V27.219c0 1.016.821 1.835 1.836 1.835a1.833 1.833 0 0 0 1.836-1.835V11.924c0-2.582 1.09-4.369 3.069-5.034 2.226-.742 4.883.101 6.326 2.01.889 1.176 1.229 2.35 1.043 3.587-.248 1.646-1.34 2.836-1.649 3.104a1.836 1.836 0 0 0 1.257 3.428c1.235-.311 2.896-2.338 3.634-4.426.668-1.904.978-4.82-1.354-7.905z"/></symbol><symbol viewBox="0 0 32 32" id="icon-cancer"><title>cancer</title><path d="M27.955 19.752c-.087.078-7.049 6.217-14.847 6.047.944-1.231 1.53-2.756 1.53-4.428 0-4.035-3.283-7.317-7.319-7.317C3.283 14.053 0 17.336 0 21.372c0 3.6 2.614 6.582 6.04 7.189a17.777 17.777 0 0 0 7.44 1.632c9.279 0 16.985-6.836 17.392-7.204a2.18 2.18 0 0 0-2.917-3.237zM7.319 24.334a2.963 2.963 0 0 1-2.962-2.963 2.964 2.964 0 0 1 2.962-2.961 2.964 2.964 0 0 1 2.962 2.961 2.964 2.964 0 0 1-2.962 2.963z"/><path d="M4.045 12.247c.087-.077 7.049-6.215 14.848-6.045-.943 1.231-1.531 2.755-1.531 4.426 0 4.036 3.283 7.318 7.32 7.318 4.035 0 7.318-3.282 7.318-7.318 0-3.598-2.615-6.58-6.04-7.188a17.736 17.736 0 0 0-7.44-1.633c-9.279 0-16.985 6.836-17.392 7.204a2.174 2.174 0 0 0-.16 3.071 2.176 2.176 0 0 0 3.077.165zm20.637-4.581a2.964 2.964 0 0 1 2.961 2.962 2.964 2.964 0 0 1-2.961 2.962 2.964 2.964 0 0 1-2.963-2.962 2.965 2.965 0 0 1 2.963-2.962z"/></symbol><symbol viewBox="0 0 31.998 31.998" id="icon-capricorn"><title>capricorn</title><path d="M25.262 10.757c-2.213 0-4.164 1.088-5.394 2.741-.616-1.326-1.22-3.132-1.22-5.142 0-2.469-2.002-4.129-4.982-4.129-1.527 0-3.107.462-4.193 1.345-1.33-1.016-3.258-1.586-4.825-1.586-1.246 0-2.331.337-3.136.974C.822 5.506 0 6.538 0 8.358a1.481 1.481 0 0 0 2.964 0c0-.722.203-1.23 1.195-1.375 1.762-.264 3.777.883 3.929 1.375v12.104a1.482 1.482 0 0 0 2.963 0V8.358c0-.522 1.206-1.165 2.614-1.165.649 0 1.234.142 1.604.385.294.195.413.423.413.78 0 4.285 2.095 7.705 2.873 8.828-.006.104-.031.204-.031.31 0 1.057.266 2.04.697 2.93-.908 1.381-3.453 4.526-7.861 4.621a1.483 1.483 0 0 0 .031 2.965h.031c5.055-.107 8.215-3.201 9.738-5.205 1.141.882 2.551 1.43 4.1 1.43a6.743 6.743 0 0 0 6.738-6.736c0-3.719-3.019-6.744-6.736-6.744zm0 10.514a3.778 3.778 0 0 1-3.773-3.774 3.778 3.778 0 0 1 3.773-3.773 3.778 3.778 0 0 1 3.775 3.773 3.78 3.78 0 0 1-3.775 3.774z"/></symbol><symbol viewBox="0 0 32 32.001" id="icon-gemini"><title>gemini</title><path d="M21.653 23.901V8.266c2.225-.496 3.968-1.356 5.188-2.591 1.69-1.711 1.757-3.476 1.753-3.812C28.581.856 27.78.086 26.773.05c-1.017-.028-1.862.778-1.941 1.781-.085 1.099-1.918 3.171-8.234 3.171-6.448 0-8.56-2.188-8.778-3.354C7.69.645 6.796-.106 5.774.013a1.882 1.882 0 0 0-1.698 2.05c.021.209.482 4.043 6.009 5.814v16.055c-6.151 1.666-6.646 5.791-6.667 6.01-.095 1.004.625 1.863 1.625 1.998.997.135 1.936-.58 2.114-1.572.208-1.165 2.313-3.365 8.78-3.365 6.316 0 8.149 2.073 8.234 3.097a1.879 1.879 0 0 0 1.859 1.902h.021c1.028 0 1.87-.829 1.882-1.859.003-.336-.062-2.102-1.753-3.812-1.094-1.11-2.618-1.916-4.527-2.43zm-7.806-.59V8.619c.849.087 1.744.147 2.747.147.446 0 .87-.02 1.294-.037v14.577a28.316 28.316 0 0 0-4.041.005z"/></symbol><symbol viewBox="0 0 31.742 31.742" id="icon-leo"><title>leo</title><path d="M30.096 24.16a2.144 2.144 0 0 0-2.526-1.671 2.138 2.138 0 0 0-1.668 2.527c.053.271-2.261 3.369-3.908 2.63s-1.771-3.751-.705-5.126c2.334-3.002 7.604-10.612 6.123-16.393-.586-2.287-2.148-4.036-4.563-5.082-3.657-1.482-6.749-1.389-9.193.283-3.428 2.344-4.309 7.04-4.53 9.608-.014 0-.025-.005-.039-.005-4.153 0-7.532 3.379-7.532 7.532 0 4.152 3.379 7.531 7.532 7.531 4.152 0 7.53-3.379 7.53-7.531a7.529 7.529 0 0 0-3.271-6.203c.037-1.81.56-5.921 2.731-7.401 1.188-.802 2.917-.754 5.113.138 1.521.657 1.91 1.567 2.07 2.194.682 2.655-1.421 7.641-5.354 12.701-2.955 3.801-2.44 7.938 1.371 11.065 2.258 1.416 5.691.635 7.03-.174 2.113-1.27 4.372-3.77 3.789-6.623zm-21.01-2.451a3.25 3.25 0 0 1-3.247-3.246c0-1.791 1.456-3.249 3.247-3.249s3.247 1.458 3.247 3.249a3.252 3.252 0 0 1-3.247 3.246z"/></symbol><symbol viewBox="0 0 32 32" id="icon-libra"><title>libra</title><path d="M1.78 19.263h6.97c.983 0 1.78-.796 1.78-1.778l-.002-.352c-.015-1.361-.046-4.196 1.523-5.784.852-.861 2.101-1.28 3.818-1.28 2.497 0 4.066.885 4.941 2.782.771 1.678.771 3.691.77 4.633 0 .981.797 1.777 1.779 1.777h6.856a1.779 1.779 0 1 0 0-3.556h-5.132c-.092-1.238-.348-2.825-1.043-4.342-1.02-2.216-3.266-4.855-8.173-4.855-2.68 0-4.816.786-6.35 2.338-2.021 2.042-2.454 4.886-2.537 6.857h-5.2a1.78 1.78 0 1 0 0 3.56zM30.221 21.934H1.78a1.779 1.779 0 1 0 0 3.558h28.441a1.78 1.78 0 0 0 0-3.558z"/></symbol><symbol viewBox="0 0 32.001 32.001" id="icon-pisces"><title>pisces</title><path d="M29.824 14.867h-7.59c.701-6.977 4.605-9.606 4.834-9.754a2.177 2.177 0 0 0 .719-2.979 2.18 2.18 0 0 0-2.989-.732c-.269.161-6.146 3.85-6.937 13.465H12.96C12.167 5.252 6.291 1.564 6.023 1.402a2.169 2.169 0 0 0-2.966.72 2.183 2.183 0 0 0 .69 2.989c.183.119 4.132 2.736 4.835 9.756H2.176a2.176 2.176 0 1 0 0 4.353h6.393c-.73 6.222-4.487 7.361-4.634 7.4a2.177 2.177 0 0 0 1.016 4.232c.308-.076 7.113-1.829 8.003-11.636h4.914c.889 9.807 7.694 11.56 8.004 11.636.17.039.34.061.505.061.967 0 1.836-.656 2.089-1.637.298-1.148-.399-2.329-1.545-2.646-.176-.049-3.937-1.188-4.667-7.41h7.571a2.176 2.176 0 1 0-.001-4.353z"/></symbol><symbol viewBox="0 0 32.001 32" id="icon-sagittarius"><title>sagittarius</title><path d="M31.983 2.058a2.095 2.095 0 0 0-.146-.718 2.089 2.089 0 0 0-.439-.664l-.01-.017a2.088 2.088 0 0 0-.68-.453 2.074 2.074 0 0 0-.798-.163H18.747a2.094 2.094 0 0 0 0 4.186h6.099l-9.998 9.967-3.593-3.729a2.094 2.094 0 0 0-3.015 2.906l3.642 3.777L.615 28.383a2.093 2.093 0 0 0 2.955 2.963l11.215-11.181 4.11 4.265c.41.426.957.641 1.508.641a2.095 2.095 0 0 0 1.507-3.545l-4.158-4.315 10.062-10.03v5.944a2.094 2.094 0 0 0 4.188 0V2.136c-.002-.029-.017-.051-.019-.078z"/></symbol><symbol viewBox="0 0 31.997 31.997" id="icon-scorpion"><title>scorpion</title><path d="M31.455 21.75l-4.507-3.229a1.3 1.3 0 0 0-2.061 1.055v1.984c-.863-.207-2.01-.649-2.01-1.333V8.198c0-2.904-3.006-4.252-4.902-4.252a4.692 4.692 0 0 0-3.338 1.355 4.918 4.918 0 0 0-3.367-1.355 4.686 4.686 0 0 0-3.33 1.351c-.007.005-.013.015-.02.021-.898-.75-2.02-1.156-3.12-1.156-1.27 0-2.453.479-3.331 1.351C.799 6.177 0 7.383 0 9.343c0 .895.724 1.617 1.618 1.617s1.617-.724 1.617-1.617c0-1.806 1.198-1.945 1.565-1.945.77 0 1.669.509 1.669 1.945v13.685a1.617 1.617 0 0 0 3.234 0v-13.9c0-1.806 1.199-1.946 1.566-1.946 2.192 0 1.903 2.105 1.903 2.734v13.112a1.617 1.617 0 1 0 3.235 0v-13.9c0-1.806 1.196-1.946 1.565-1.946.77 0 1.668.51 1.668 1.946v11.104c0 3.082 3.139 4.321 5.242 4.622v1.893a1.308 1.308 0 0 0 1.303 1.305 1.3 1.3 0 0 0 .857-.321l4.507-3.937c.302-.262.466-.646.445-1.045a1.28 1.28 0 0 0-.539-.999z"/></symbol><symbol viewBox="0 0 32 32" id="icon-taurus"><title>taurus</title><path d="M29.988.479h-.005c-.276 0-6.46.118-10.985 7.858a11.764 11.764 0 0 0-2.833-.359c-1.086 0-2.135.16-3.134.437C8.498.601 2.278.479 2.001.479h-.006A1.998 1.998 0 0 0 0 2.454 2.027 2.027 0 0 0 1.962 4.5c.181.006 4.14.216 7.417 5.645-3.011 2.135-4.986 5.641-4.986 9.605 0 6.489 5.28 11.771 11.771 11.771 6.492 0 11.774-5.28 11.774-11.771 0-4.069-2.077-7.663-5.225-9.777C25.944 4.755 29.781 4.51 30.02 4.5A2.009 2.009 0 0 0 32 2.483 2.01 2.01 0 0 0 29.988.479zm-13.824 27.02c-4.272 0-7.749-3.476-7.749-7.748S11.892 12 16.164 12c4.275 0 7.751 3.478 7.751 7.75.001 4.273-3.477 7.749-7.751 7.749z"/></symbol><symbol viewBox="0 0 32 32" id="icon-virgo"><title>virgo</title><path d="M31.882 17.006c.498-2.979-.598-5.78-2.931-7.495-1.225-.9-2.631-1.364-3.889-1.354V6.654c0-3.987-3.293-4.659-5.371-4.659-1.394 0-2.688.524-3.65 1.479l-.005.006a5.39 5.39 0 0 0-3.689-1.485c-1.39 0-2.686.524-3.648 1.479-.008.006-.014.018-.021.025-.985-.822-2.214-1.268-3.418-1.268-1.392 0-2.688.524-3.65 1.479C.876 4.439 0 5.761 0 7.909A1.77 1.77 0 0 0 1.772 9.68a1.77 1.77 0 0 0 1.772-1.771c0-1.979 1.312-2.133 1.715-2.133.843 0 1.827.558 1.827 2.133v14.99a1.771 1.771 0 1 0 3.544 0V7.671c0-1.979 1.544-2.129 1.968-2.129.424 0 1.877.113 1.877 2.41 0 2.871-.045 14.946-.045 14.946a1.771 1.771 0 1 0 3.544 0V7.671c0-1.979 1.312-2.132 1.715-2.132.843 0 1.828.557 1.828 2.132 0 0 .051 16.173.049 17.226-1.44.844-2.838 1.396-3.893 1.596a1.772 1.772 0 1 0 .656 3.482c1.422-.271 3.402-1.045 5.418-2.277 1.896.971 4.486 1.439 5.799 1.627.956.129 1.867-.537 2.004-1.504a1.77 1.77 0 0 0-1.504-2.006 23.83 23.83 0 0 1-2.951-.627c2.318-2.123 4.235-4.881 4.787-8.182zm-6.762 5.182l.009-2.549c.01-2.867.021-6.07.021-7.956.397.02 1.146.219 1.877.819.662.543 1.718 1.775 1.359 3.918-.366 2.203-1.652 4.167-3.266 5.768z"/></symbol></svg>