<?xml version="1.0" encoding="UTF-8" standalone="no"?>
<svg width="81px" height="38px" viewBox="0 0 81 38" version="1.1" xmlns="http://www.w3.org/2000/svg" xmlns:xlink="http://www.w3.org/1999/xlink" xmlns:sketch="http://www.bohemiancoding.com/sketch/ns">
    <!-- Generator: Sketch 3.4.4 (17249) - http://www.bohemiancoding.com/sketch -->
    <title>icon-carica copy + icon-carica copy 2</title>
    <desc>Created with Sketch.</desc>
    <defs></defs>
    <g id="Page-1" stroke="none" stroke-width="1" fill="none" fill-rule="evenodd" sketch:type="MSPage">
        <g id="icon-carica-copy-+-icon-carica-copy-2" sketch:type="MSLayerGroup" fill="#000000">
            <g id="icon-carica-copy" transform="translate(0.000000, 6.000000)" sketch:type="MSShapeGroup">
                <path d="M20.284,0 C12.0510238,0.0725062352 5.23705931,6.42164548 4.584,14.629 L2.109,10.8 C1.76305737,10.2780034 1.06459078,10.1259894 0.533,10.457 C0.022018954,10.8216929 -0.124822403,11.5167999 0.195,12.057 L5.431,20 L12.631,13.371 C12.8545462,13.1685515 12.986637,12.8842449 12.9971863,12.5828365 C13.0077356,12.2814282 12.8958451,11.9885822 12.687,11.771 C12.4914823,11.5448342 12.2106832,11.4102086 11.9119171,11.3993961 C11.6131509,11.3885836 11.3233549,11.5025591 11.112,11.714 L6.779,15.714 C7.0473137,8.32107619 13.2115649,2.51885955 20.6071878,2.69795989 C28.0028107,2.87706022 33.8789752,8.97086048 33.7891143,16.3681059 C33.6992534,23.7653513 27.6767912,29.7146084 20.279,29.714 C16.6846761,29.7088239 13.2411533,28.2689231 10.713,25.714 C10.5092783,25.4953371 10.2238578,25.371156 9.925,25.371156 C9.6261422,25.371156 9.34072167,25.4953371 9.137,25.714 C8.92123457,25.9242483 8.7995441,26.2127375 8.7995441,26.514 C8.7995441,26.8152625 8.92123457,27.1037517 9.137,27.314 C12.0650348,30.3206925 16.0871614,32.0115228 20.284,32 C29.120556,32 36.284,24.836556 36.284,16 C36.284,7.163444 29.120556,2.84217094e-14 20.284,2.84217094e-14 L20.284,0 Z" id="Shape"></path>
            </g>
            <g id="icon-carica-copy-2" transform="translate(44.000000, 0.000000)" sketch:type="MSShapeGroup">
                <path d="M20.284,0 C12.0510238,0.0725062352 5.23705931,6.42164548 4.584,14.629 L2.109,10.8 C1.76305737,10.2780034 1.06459078,10.1259894 0.533,10.457 C0.022018954,10.8216929 -0.124822403,11.5167999 0.195,12.057 L5.431,20 L12.631,13.371 C12.8545462,13.1685515 12.986637,12.8842449 12.9971863,12.5828365 C13.0077356,12.2814282 12.8958451,11.9885822 12.687,11.771 C12.4914823,11.5448342 12.2106832,11.4102086 11.9119171,11.3993961 C11.6131509,11.3885836 11.3233549,11.5025591 11.112,11.714 L6.779,15.714 C7.0473137,8.32107619 13.2115649,2.51885955 20.6071878,2.69795989 C28.0028107,2.87706022 33.8789752,8.97086048 33.7891143,16.3681059 C33.6992534,23.7653513 27.6767912,29.7146084 20.279,29.714 C16.6846761,29.7088239 13.2411533,28.2689231 10.713,25.714 C10.5092783,25.4953371 10.2238578,25.371156 9.925,25.371156 C9.6261422,25.371156 9.34072167,25.4953371 9.137,25.714 C8.92123457,25.9242483 8.7995441,26.2127375 8.7995441,26.514 C8.7995441,26.8152625 8.92123457,27.1037517 9.137,27.314 C12.0650348,30.3206925 16.0871614,32.0115228 20.284,32 C29.120556,32 36.284,24.836556 36.284,16 C36.284,7.163444 29.120556,2.84217094e-14 20.284,2.84217094e-14 L20.284,0 Z" id="Shape"></path>
            </g>
        </g>
    </g>
</svg>